# xmcd CD database file
#
# Track frame offsets:
#	150
#	11592
#	23590
#	39153
#	54358
#	69982
#	88521
#	102382
#	119842
#	139937
#
# Disc length: 2119 seconds
#
# Revision: 1
# Processed by: cddbd v1.5.1PL2 Copyright (c) Steve Scherf et al.
# Submitted via: CDex 1.70beta2
#
DISCID=7c08450a
DTITLE=Mr. Mojo - Mr. Mojo
DYEAR=2003
DGENRE=Blues
TTITLE0=The Mojo is back in town (Little Rubber)
TTITLE1=It couldn't be that hard
TTITLE2=Man of many words
TTITLE3=Soothed soul
TTITLE4=Do it by yourself
TTITLE5=Miss you blues
TTITLE6=Let me love you baby
TTITLE7=Standing around crying
TTITLE8=All that matters
TTITLE9=Ten years passed away
EXTD=YEAR: 2003
EXTT0=
EXTT1=
EXTT2=
EXTT3=
EXTT4=
EXTT5=
EXTT6=
EXTT7=
EXTT8=
EXTT9=
PLAYORDER=
